<svg width="204" height="218" viewBox="0 0 204 218" fill="none" xmlns="http://www.w3.org/2000/svg">
<path d="M188.207 57.207V177.897" stroke="#222829" stroke-width="4" stroke-linejoin="round"/>
<path d="M88.2068 81.3452H15.793" stroke="#222829" stroke-width="4" stroke-linejoin="round"/>
<path d="M188.207 81.3452H129.586" stroke="#222829" stroke-width="4" stroke-linejoin="round"/>
<path d="M129.586 67.552H188.207" stroke="#222829" stroke-width="4" stroke-linejoin="round"/>
<path d="M15.793 67.552H88.2068" stroke="#222829" stroke-width="4" stroke-linejoin="round"/>
<path d="M15.7935 57.207V177.897" stroke="#222829" stroke-width="4" stroke-linejoin="round"/>
<path d="M2 177.897V2.03467H202V177.897" stroke="#222829" stroke-width="4" stroke-linejoin="round"/>
<rect x="2" y="188.241" width="200" height="27.5862" stroke="#222829" stroke-width="4" stroke-linejoin="round"/>
<path d="M67.5168 174.448H43.3789V188.242H160.62V174.448H136.482" stroke="#222829" stroke-width="4" stroke-linejoin="round"/>
<path fill-rule="evenodd" clip-rule="evenodd" d="M129.586 88.2415L115.793 102.035H102L88.207 88.2415V60.6553H129.586V88.2415Z" stroke="#222829" stroke-width="4" stroke-linejoin="round"/>
<path d="M15.793 15.8276V33.069C15.793 40.6552 21.9999 46.8621 29.5861 46.8621H81.3102C88.8964 46.8621 95.1033 53.069 95.1033 60.6552" stroke="#222829" stroke-width="4" stroke-linejoin="round"/>
<path d="M188.207 15.8276V33.069C188.207 40.6552 182 46.8621 174.414 46.8621H136.483C128.896 46.8621 122.689 53.069 122.689 60.6552" stroke="#222829" stroke-width="4" stroke-linejoin="round"/>
<path d="M108.897 91.6898V84.7932" stroke="#222829" stroke-width="4" stroke-linejoin="round"/>
<path d="M174.414 26.1724C174.414 29.9655 171.311 33.0689 167.518 33.0689H67.5176" stroke="#222829" stroke-width="4" stroke-linejoin="round"/>
<path d="M29.5859 26.1724C29.5859 29.9655 32.6894 33.0689 36.4825 33.0689H67.517" stroke="#222829" stroke-width="4" stroke-linejoin="round"/>
<path d="M2 15.8277H202" stroke="#222829" stroke-width="4" stroke-linejoin="round"/>
<path d="M12.3447 202.035H19.2413" stroke="#222829" stroke-width="4" stroke-linejoin="round"/>
<path d="M26.1377 202.035H33.0342" stroke="#222829" stroke-width="4" stroke-linejoin="round"/>
<path d="M39.9307 202.035H46.8272" stroke="#222829" stroke-width="4" stroke-linejoin="round"/>
<path d="M191.656 202.035H157.173" stroke="#222829" stroke-width="4" stroke-linejoin="round"/>
<rect x="77.8623" y="160.655" width="48.2759" height="13.7931" stroke="#222829" stroke-width="4" stroke-linejoin="round"/>
<path d="M95.1037 108.931V115.828C95.1037 136.517 81.3105 160.655 81.3105 160.655H122.69C122.69 160.655 108.897 136.517 108.897 115.828" stroke="#222829" stroke-width="4" stroke-linejoin="round"/>
<path d="M108.897 102.035V108.931" stroke="#222829" stroke-width="4" stroke-linejoin="round"/>
</svg>
