<svg width="204" height="204" viewBox="0 0 204 204" fill="none" xmlns="http://www.w3.org/2000/svg">
<path d="M31.0323 21.3549H11.6774C6.19355 21.3549 2 25.5484 2 31.0323V160.065C2 165.548 6.19355 169.742 11.6774 169.742H192.323C197.806 169.742 202 165.548 202 160.065V31.0323C202 25.5484 197.806 21.3549 192.323 21.3549H69.7419" stroke="#222829" stroke-width="4"/>
<path d="M121.354 169.742L127.806 202" stroke="#222829" stroke-width="4"/>
<path d="M76.1934 202L82.645 169.742" stroke="#222829" stroke-width="4"/>
<path d="M60.0645 202H143.935" stroke="#222829" stroke-width="4"/>
<path d="M98.7744 156.839H105.226" stroke="#222829" stroke-width="4"/>
<path d="M69.742 34.2581H189.097V143.935H14.9033V34.2581H31.0324" stroke="#222829" stroke-width="4"/>
<path d="M34.2578 134.258V92.3226H72.9675V79.4194L92.3223 60.0646V79.4194L111.677 60.0646V79.4194L131.032 60.0646V79.4194L150.387 60.0646V79.4194L169.742 60.0646V134.258" stroke="#222829" stroke-width="4" stroke-linejoin="round"/>
<path d="M66.5154 72.9677L60.0638 66.5161V2H40.709V92.3226" stroke="#222829" stroke-width="4" stroke-linejoin="round"/>
<path d="M40.709 21.3548H60.0638" stroke="#222829" stroke-width="4" stroke-linejoin="round"/>
<path d="M50.3872 105.226H43.9355" stroke="#222829" stroke-width="4" stroke-linejoin="round"/>
<path d="M63.2905 105.226H56.8389" stroke="#222829" stroke-width="4" stroke-linejoin="round"/>
<path d="M76.1928 105.226H69.7412" stroke="#222829" stroke-width="4" stroke-linejoin="round"/>
<path d="M89.0961 105.226H82.6445" stroke="#222829" stroke-width="4" stroke-linejoin="round"/>
<path d="M101.999 105.226H95.5479" stroke="#222829" stroke-width="4" stroke-linejoin="round"/>
<path d="M114.903 105.226H108.451" stroke="#222829" stroke-width="4" stroke-linejoin="round"/>
<path d="M127.806 105.226H121.354" stroke="#222829" stroke-width="4" stroke-linejoin="round"/>
<path d="M140.709 105.226H134.258" stroke="#222829" stroke-width="4" stroke-linejoin="round"/>
<path d="M89.0961 92.3226H82.6445" stroke="#222829" stroke-width="4" stroke-linejoin="round"/>
<path d="M101.999 92.3226H95.5479" stroke="#222829" stroke-width="4" stroke-linejoin="round"/>
<path d="M114.903 92.3226H108.451" stroke="#222829" stroke-width="4" stroke-linejoin="round"/>
<path d="M127.806 92.3226H121.354" stroke="#222829" stroke-width="4" stroke-linejoin="round"/>
<path d="M140.709 92.3226H134.258" stroke="#222829" stroke-width="4" stroke-linejoin="round"/>
<path d="M153.613 92.3226H147.161" stroke="#222829" stroke-width="4" stroke-linejoin="round"/>
<path d="M150.387 134.258V105.226H169.742" stroke="#222829" stroke-width="4" stroke-linejoin="round"/>
<path d="M43.9355 124.581H140.71" stroke="#222829" stroke-width="4"/>
</svg>
